<?xml version="1.0" encoding="UTF-8"?>
<svg width="36px" height="36px" viewBox="0 0 36 36" version="1.1" xmlns="http://www.w3.org/2000/svg" xmlns:xlink="http://www.w3.org/1999/xlink">
    <!-- Generator: Sketch 51.3 (57544) - http://www.bohemiancoding.com/sketch -->
    <title>arrow-l</title>
    <desc>Created with Sketch.</desc>
    <defs></defs>
    <g id="Page-1" stroke="none" stroke-width="1" fill="none" fill-rule="evenodd">
        <g id="arrow-l">
            <circle id="Oval" fill="#FFFFFF" cx="18" cy="18" r="18"></circle>
            <path d="M28.6509272,16.1117413 L28.6883906,16.1199634 L12.6286867,16.1199634 L17.677271,11.043567 C17.9244904,10.7957278 18.0601002,10.4599899 18.0601002,10.1076119 C18.0601002,9.7552339 17.9244904,9.42184517 17.677271,9.17341869 L16.8917102,8.38487507 C16.6446858,8.13703588 16.3155152,8 15.9644908,8 C15.6132715,8 15.2839057,8.13605706 15.0368813,8.38389624 L6.38263929,17.0659025 C6.13463934,17.3147205 5.99902962,17.6461516 6.00000523,17.9987253 C5.99902962,18.3532568 6.13463934,18.6848836 6.38263929,18.9333101 L15.0368813,27.6160994 C15.2839057,27.8637428 15.6130763,27.9999957 15.9644908,27.9999957 C16.3155152,27.9999957 16.6446858,27.8635471 16.8917102,27.6160994 L17.677271,26.8275558 C17.9244904,26.5801081 18.0601002,26.2496559 18.0601002,25.8972779 C18.0601002,25.5450957 17.9244904,25.2320666 17.677271,24.9844231 L12.5717111,19.8796407 L28.6688784,19.8796407 C29.3921953,19.8796407 30,19.2541698 30,18.5288585 L30,17.4135821 C30,16.6882708 29.3742441,16.1117413 28.6509272,16.1117413 Z" id="Shape" fill="#000000" fill-rule="nonzero"></path>
        </g>
    </g>
</svg>